<?xml version="1.0" encoding="iso-8859-1"?>
<!-- Generator: Adobe Illustrator 19.0.0, SVG Export Plug-In . SVG Version: 6.00 Build 0)  -->
<svg version="1.1" id="Capa_1" xmlns="http://www.w3.org/2000/svg" xmlns:xlink="http://www.w3.org/1999/xlink" x="0px" y="0px"
	 viewBox="0 0 424 424" style="enable-background:new 0 0 424 424;" xml:space="preserve">
<g>
	<g>
		<polygon points="109.04,162.08 109.36,193.52 147.76,193.28 147.76,161.76 		"/>
	</g>
</g>
<g>
	<g>
		<path d="M280.72,11.68v96.8c0,0.72,0.32,1.12,0.64,1.12h94.08L280.72,11.68z"/>
	</g>
</g>
<g>
	<g>
		<path d="M382.32,125.6H281.36c-9.291-0.088-16.764-7.668-16.72-16.96V0H49.6c-8.837,0-16,7.163-16,16v392c0,8.837,7.163,16,16,16
			h324.8c8.837,0,16-7.163,16-16V125.6H382.32z M93.36,161.6c0-8.837,7.163-16,16-16H148c8.837,0,16,7.163,16,16v32
			c0,8.837-7.163,16-16,16h-38.96c-8.742-0.175-15.725-7.336-15.68-16.08V161.6z M322.64,350.88H101.36c-4.418,0-8-3.582-8-8
			s3.582-8,8-8h221.28c4.418,0,8,3.582,8,8S327.058,350.88,322.64,350.88z M322.64,303.68H101.36c-4.418,0-8-3.582-8-8s3.582-8,8-8
			h221.28c4.418,0,8,3.582,8,8S327.058,303.68,322.64,303.68z M322.64,256.48H101.36c-4.418,0-8-3.582-8-8s3.582-8,8-8h221.28
			c4.418,0,8,3.582,8,8S327.058,256.48,322.64,256.48z M188,201.28c0-4.418,3.582-8,8-8h126.4c4.418,0,8,3.582,8,8s-3.582,8-8,8H196
			C191.582,209.28,188,205.698,188,201.28z M322.64,162.08H196c-4.418,0-8-3.582-8-8s3.582-8,8-8h126.64c4.418,0,8,3.582,8,8
			S327.058,162.08,322.64,162.08z"/>
	</g>
</g>
<g>
</g>
<g>
</g>
<g>
</g>
<g>
</g>
<g>
</g>
<g>
</g>
<g>
</g>
<g>
</g>
<g>
</g>
<g>
</g>
<g>
</g>
<g>
</g>
<g>
</g>
<g>
</g>
<g>
</g>
</svg>
